<?xml version="1.0" encoding="UTF-8"?>
<svg version="1.1" xmlns="http://www.w3.org/2000/svg" width="454" height="549">
<path d="M0 0 C0.01030746 0.7654715 0.02061493 1.53094299 0.03123474 2.3196106 C0.13045503 9.6414513 0.23311026 16.96323295 0.33933926 24.28497505 C0.39379923 28.04640643 0.44706851 31.80784572 0.49731445 35.56933594 C0.72741967 52.72886557 1.05837298 69.8612328 2 87 C29.78844859 76.50439768 57.34839731 65.80902384 84.11834717 52.90563965 C85.97257351 52.01320037 87.82983633 51.12739622 89.68798828 50.24316406 C107.51191681 41.72536171 124.39300736 32.26560058 140.1640625 20.328125 C142 19 142 19 143 19 C143.11700207 47.27767029 143.20507084 75.5553041 143.25906086 103.83316803 C143.28479999 116.96421927 143.31986849 130.09511976 143.37719727 143.22607422 C143.42716356 154.67617285 143.45932217 166.12616226 143.47044247 177.5763669 C143.4769388 183.63451955 143.4921175 189.69235983 143.52865028 195.75041199 C143.56281874 201.46317693 143.57301104 207.17550355 143.56553841 212.88836098 C143.56690367 214.97476402 143.57671074 217.06118311 143.59602737 219.14749718 C143.78457051 240.57908674 138.83850105 257.19851089 125 274 C124.236875 275.010625 123.47375 276.02125 122.6875 277.0625 C122.130625 277.701875 121.57375 278.34125 121 279 C120.34 279 119.68 279 119 279 C118.67 279.99 118.34 280.98 118 282 C114.5606538 285.26570931 110.75995275 288.11372922 107 291 C106.47180664 291.40702148 105.94361328 291.81404297 105.39941406 292.23339844 C63.81175494 323.9348463 9.49898993 338.9131454 -39.50370789 355.18009949 C-110.91827758 377.57486519 -110.91827758 377.57486519 -175 415 C-176.25296875 415.93199219 -176.25296875 415.93199219 -177.53125 416.8828125 C-193.94431005 429.39523791 -205.86859805 446.41662396 -209 467 C-209.27794338 470.42283334 -209.33303023 473.81696073 -209.3125 477.25 C-209.31056641 478.6110083 -209.31056641 478.6110083 -209.30859375 479.99951172 C-209.21314574 486.73933428 -208.34933372 492.84562815 -206.65625 499.3828125 C-206 502 -206 502 -206 505 C-209.92894435 503.3777867 -212.75923373 500.68305113 -215.8125 497.8125 C-216.61469971 497.06395752 -216.61469971 497.06395752 -217.43310547 496.30029297 C-218.49080141 495.3099662 -219.5462165 494.31719672 -220.59912109 493.32177734 C-221.72026076 492.26394357 -222.85248255 491.21785982 -223.98828125 490.17578125 C-239.9886576 475.01552013 -251.14930611 454.51958434 -256.8125 433.375 C-257.00739014 432.64845215 -257.20228027 431.9219043 -257.40307617 431.17333984 C-260.6230784 418.31319871 -261.29444115 405.70980431 -261.25878906 392.54003906 C-261.26150617 390.83320975 -261.26507111 389.12638162 -261.26940918 387.41955566 C-261.27845269 382.82425158 -261.27502168 378.22903827 -261.26865101 373.6337328 C-261.26354574 368.79486174 -261.26829524 363.95599786 -261.27142334 359.11712646 C-261.27505129 350.9905052 -261.2702962 342.8639204 -261.26074219 334.73730469 C-261.2498746 325.38631198 -261.25337564 316.03540663 -261.264395 306.68441606 C-261.27351898 298.61427263 -261.2747279 290.54415525 -261.26951766 282.47400832 C-261.266424 277.67256096 -261.26591567 272.87115441 -261.27259064 268.06970978 C-261.27843784 263.54859404 -261.27423486 259.02758897 -261.26280212 254.50648499 C-261.2601938 252.86277702 -261.26085353 251.21905948 -261.26532745 249.57535553 C-261.30393722 233.92760256 -260.0829624 218.59912583 -256.25 203.375 C-255.98541992 202.30942871 -255.72083984 201.24385742 -255.44824219 200.14599609 C-248.90400571 174.51634396 -236.69230565 151.81530409 -218.46484375 132.6171875 C-216.49356705 130.52407278 -214.6338744 128.4086883 -212.8125 126.1875 C-209.55626858 122.36257465 -205.87435643 119.18586013 -202 116 C-200.57107422 114.81470703 -200.57107422 114.81470703 -199.11328125 113.60546875 C-167.24146783 87.63404438 -129.52309581 69.5731657 -92.875 51.4375 C-71.15800542 40.69041897 -49.51007973 29.86289433 -28.6875 17.4375 C-27.35102417 16.64533081 -27.35102417 16.64533081 -25.98754883 15.8371582 C-19.22475064 11.80046791 -12.58251661 7.59268047 -6.01245117 3.24975586 C-1.09114828 0 -1.09114828 0 0 0 Z " fill="#26BEFA" transform="translate(289,23)"/>
<path d="M0 0 C0.11700207 28.27767029 0.20507084 56.5553041 0.25906086 84.83316803 C0.28479999 97.96421927 0.31986849 111.09511976 0.37719727 124.22607422 C0.42716356 135.67617285 0.45932217 147.12616226 0.47044247 158.5763669 C0.4769388 164.63451955 0.4921175 170.69235983 0.52865028 176.75041199 C0.56281874 182.46317693 0.57301104 188.17550355 0.56553841 193.88836098 C0.56690367 195.97476402 0.57671074 198.06118311 0.59602737 200.14749718 C0.78457051 221.57908674 -4.16149895 238.19851089 -18 255 C-18.763125 256.010625 -19.52625 257.02125 -20.3125 258.0625 C-20.869375 258.701875 -21.42625 259.34125 -22 260 C-22.66 260 -23.32 260 -24 260 C-24.33 260.99 -24.66 261.98 -25 263 C-28.4393462 266.26570931 -32.24004725 269.11372922 -36 272 C-36.52819336 272.40702148 -37.05638672 272.81404297 -37.60058594 273.23339844 C-79.18824506 304.9348463 -133.50101007 319.9131454 -182.50370789 336.18009949 C-253.91827758 358.57486519 -253.91827758 358.57486519 -318 396 C-319.25296875 396.93199219 -319.25296875 396.93199219 -320.53125 397.8828125 C-336.94431005 410.39523791 -348.86859805 427.41662396 -352 448 C-352.27794338 451.42283334 -352.33303023 454.81696073 -352.3125 458.25 C-352.31056641 459.6110083 -352.31056641 459.6110083 -352.30859375 460.99951172 C-352.21314574 467.73933428 -351.34933372 473.84562815 -349.65625 480.3828125 C-349 483 -349 483 -349 486 C-352.92894435 484.3777867 -355.75923373 481.68305113 -358.8125 478.8125 C-359.3472998 478.31347168 -359.88209961 477.81444336 -360.43310547 477.30029297 C-361.49080141 476.3099662 -362.5462165 475.31719672 -363.59912109 474.32177734 C-364.72026076 473.26394357 -365.85248255 472.21785982 -366.98828125 471.17578125 C-374.84192692 463.73449884 -390.23861786 447.26578994 -391.16113281 436.0390625 C-391.74876053 402.25730187 -383.47863613 374.48949315 -359.85400391 349.52246094 C-350.26169723 339.64830702 -338.99186197 331.70873397 -327 325 C-326.32453125 324.608125 -325.6490625 324.21625 -324.953125 323.8125 C-297.68346774 308.22983871 -297.68346774 308.22983871 -286 307 C-286 306.34 -286 305.68 -286 305 C-285.04867187 304.63390625 -284.09734375 304.2678125 -283.1171875 303.890625 C-278.07195963 301.94282302 -273.03574192 299.97217269 -268 298 C-266.31197266 297.34064453 -266.31197266 297.34064453 -264.58984375 296.66796875 C-197.31727162 271.12735657 -197.31727162 271.12735657 -152.4375 217.6875 C-149.71261159 211.25624679 -147.47757648 204.83528476 -146 198 C-145.73460387 196.77282273 -145.73460387 196.77282273 -145.46384621 195.520854 C-144.09511406 188.63249452 -143.69551664 182.02287333 -143.68115234 175.01098633 C-143.67110672 173.86821228 -143.6610611 172.72543823 -143.65071106 171.54803467 C-143.62007362 167.8093715 -143.60289818 164.07077929 -143.5859375 160.33203125 C-143.56721021 157.72457782 -143.54763566 155.11713034 -143.5272522 152.50968933 C-143.48069248 146.37250261 -143.44383898 140.23529858 -143.41057932 134.09802693 C-143.37219549 127.1038951 -143.32282866 120.10985379 -143.27259517 113.11579859 C-143.1696151 98.7439342 -143.08024575 84.37200843 -143 70 C-142.01 69.67 -141.02 69.34 -140 69 C-139.67 68.34 -139.34 67.68 -139 67 C-136.54974323 65.945488 -134.122728 64.99895271 -131.6171875 64.09375 C-130.05296223 63.51412272 -128.48875393 62.93444964 -126.92456055 62.35473633 C-126.10031586 62.05225983 -125.27607117 61.74978333 -124.42684937 61.43814087 C-109.04986753 55.785074 -93.91765267 49.78247284 -79 43 C-77.03920216 42.12078222 -75.07826034 41.24188548 -73.1171875 40.36328125 C-48.48716285 29.267025 -24.4563713 17.69313027 -2.8359375 1.328125 C-1 0 -1 0 0 0 Z " fill="#114FED" transform="translate(432,42)"/>
<path d="M0 0 C0.01030746 0.7654715 0.02061493 1.53094299 0.03123474 2.3196106 C0.13045503 9.6414513 0.23311026 16.96323295 0.33933926 24.28497505 C0.39379923 28.04640643 0.44706851 31.80784572 0.49731445 35.56933594 C0.72741967 52.72886557 1.05837298 69.8612328 2 87 C2.66 87.33 3.32 87.66 4 88 C-0.32942821 89.93442537 -4.64120843 91.59216927 -9.15234375 93.046875 C-11.45153962 93.81642753 -13.72700945 94.62131422 -16.00390625 95.453125 C-23.62933143 98.22840236 -30.95134303 100.7224354 -39 102 C-39 102.66 -39 103.32 -39 104 C-39.66902344 104.21914062 -40.33804688 104.43828125 -41.02734375 104.6640625 C-52.54106507 108.46590874 -64.03079921 112.32939453 -75.25 116.9375 C-82.23019127 119.78487995 -89.32442688 122.17221305 -96.50488281 124.46459961 C-102.18947251 126.302675 -107.57948971 128.49471147 -113 131 C-127.17702955 137.24828134 -127.17702955 137.24828134 -134.1328125 139.359375 C-136.07446215 139.97263595 -136.07446215 139.97263595 -138.0546875 141.078125 C-140 142 -140 142 -143 142 C-143 142.66 -143 143.32 -143 144 C-143.71800781 144.25652344 -144.43601562 144.51304687 -145.17578125 144.77734375 C-153.26054849 147.76760013 -160.98359855 151.27036136 -168.72583008 155.05249023 C-169.51111084 155.43348877 -170.2963916 155.8144873 -171.10546875 156.20703125 C-171.80824951 156.5522583 -172.51103027 156.89748535 -173.23510742 157.25317383 C-175 158 -175 158 -177 158 C-177 158.66 -177 159.32 -177 160 C-178.0725 160.350625 -179.145 160.70125 -180.25 161.0625 C-185.34792102 162.94452819 -189.83834163 165.74799874 -194.4609375 168.57421875 C-197 170 -197 170 -199 170 C-199 170.66 -199 171.32 -199 172 C-199.54527344 172.29132813 -200.09054688 172.58265625 -200.65234375 172.8828125 C-205.68967315 175.6210531 -210.45517634 178.57443564 -215.15234375 181.86328125 C-217 183 -217 183 -219 183 C-219 183.66 -219 184.32 -219 185 C-222.19026533 187.32019297 -225.41726669 189.34643078 -229 191 C-229 191.66 -229 192.32 -229 193 C-229.61875 193.0825 -230.2375 193.165 -230.875 193.25 C-233.69640174 194.24578885 -233.71927958 195.36322266 -235 198 C-235.75796875 198.59296875 -236.5159375 199.1859375 -237.296875 199.796875 C-242.12460562 203.73161499 -245.45470481 208.92541945 -249 214 C-249.58080322 214.82443604 -249.58080322 214.82443604 -250.17333984 215.66552734 C-251.30812122 217.30101836 -252.40444288 218.96297887 -253.5 220.625 C-254.47453125 222.09839844 -254.47453125 222.09839844 -255.46875 223.6015625 C-259.5995157 232.76933332 -258.17022308 244.29416344 -258.20532227 254.19970703 C-258.21491646 255.92530036 -258.22492741 257.65089141 -258.23532104 259.3764801 C-258.26220936 264.03481563 -258.28330529 268.69316112 -258.30332303 273.35153055 C-258.32528247 278.22956027 -258.35262216 283.10755985 -258.37937927 287.98556519 C-258.42917214 297.21107509 -258.47416037 306.43660185 -258.51740164 315.66214454 C-258.56688902 326.17005618 -258.62176428 336.67793755 -258.67708123 347.18581986 C-258.79069532 368.79051834 -258.89757867 390.39524575 -259 412 C-261.8584657 409.1415343 -261.25159363 407.20514783 -261.25396729 403.19897461 C-261.25864726 402.13740379 -261.25864726 402.13740379 -261.26342177 401.05438709 C-261.27143221 398.67028922 -261.26506596 396.28644376 -261.25878906 393.90234375 C-261.26149797 392.19728445 -261.26505833 390.49222631 -261.26940918 388.78717041 C-261.27855847 384.14157135 -261.27497561 379.49606074 -261.26865101 374.85046005 C-261.263591 369.9794872 -261.26828369 365.10852198 -261.27142334 360.23754883 C-261.27506851 352.03921146 -261.27025525 343.84091004 -261.26074219 335.64257812 C-261.24991457 326.20322218 -261.25333927 316.76395302 -261.264395 307.32459927 C-261.27352184 299.20374282 -261.27472522 291.08291227 -261.26951766 282.96205235 C-261.26641995 278.12018481 -261.26592626 273.27835776 -261.27259064 268.43649292 C-261.27844014 263.8662901 -261.27423074 259.29619675 -261.26280212 254.72600555 C-261.26019312 253.06295705 -261.26085476 251.39989909 -261.26532745 249.73685455 C-261.3036136 234.03183813 -260.09727519 218.65597472 -256.25 203.375 C-255.98541992 202.30942871 -255.72083984 201.24385742 -255.44824219 200.14599609 C-248.90400571 174.51634396 -236.69230565 151.81530409 -218.46484375 132.6171875 C-216.49356705 130.52407278 -214.6338744 128.4086883 -212.8125 126.1875 C-209.55626858 122.36257465 -205.87435643 119.18586013 -202 116 C-200.57107422 114.81470703 -200.57107422 114.81470703 -199.11328125 113.60546875 C-167.24146783 87.63404438 -129.52309581 69.5731657 -92.875 51.4375 C-71.15800542 40.69041897 -49.51007973 29.86289433 -28.6875 17.4375 C-27.35102417 16.64533081 -27.35102417 16.64533081 -25.98754883 15.8371582 C-19.22475064 11.80046791 -12.58251661 7.59268047 -6.01245117 3.24975586 C-1.09114828 0 -1.09114828 0 0 0 Z " fill="#57E0FD" transform="translate(289,23)"/>
<path d="M0 0 C0.33 0 0.66 0 1 0 C1 72.27 1 144.54 1 219 C0.34 219.33 -0.32 219.66 -1 220 C-1 149.05 -1 78.1 -1 5 C-1.66 4.67 -2.32 4.34 -3 4 C-2.02727325 2.64664105 -1.0260734 1.31337396 0 0 Z " fill="#4272E4" transform="translate(431,42)"/>
<path d="M0 0 C0.33 0 0.66 0 1 0 C0.67 59.73 0.34 119.46 0 181 C-2.87487748 178.12512252 -2.25161641 176.12650659 -2.25396729 172.09803772 C-2.25708727 171.37974035 -2.26020725 170.66144298 -2.26342177 169.92137903 C-2.27143134 167.50227267 -2.26506672 165.0834151 -2.25878906 162.66430664 C-2.26149764 160.93490959 -2.26505782 159.20551369 -2.26940918 157.47612 C-2.27855201 152.76954693 -2.27498097 148.06306122 -2.26865101 143.35648656 C-2.26359998 138.43845583 -2.26828003 133.52043275 -2.27142334 128.60240173 C-2.27506595 120.34112195 -2.27025652 112.07987788 -2.26074219 103.81860352 C-2.24986067 94.25966181 -2.25337983 84.70080543 -2.264395 75.14186579 C-2.27346377 66.94481139 -2.27475505 58.74778272 -2.26951766 50.55072492 C-2.26639524 45.65064974 -2.265996 40.75061469 -2.27259064 35.85054207 C-2.27835739 31.24345076 -2.27437952 26.6364697 -2.26280212 22.02939034 C-2.26015179 20.3358529 -2.26092698 18.64230622 -2.26532745 16.94877243 C-2.27076976 14.64203725 -2.26396496 12.33565824 -2.25396729 10.02894592 C-2.25321323 8.73642442 -2.25245918 7.44390291 -2.25168228 6.11221409 C-2 3 -2 3 0 0 Z " fill="#72CFEE" transform="translate(30,254)"/>
<path d="M0 0 C0.33 0 0.66 0 1 0 C1.2242689 26.91242825 1.42516279 53.82494372 1.59840012 80.73775101 C1.67938337 93.23445712 1.76795073 105.73102272 1.87451172 118.22753906 C1.96739486 129.12231444 2.04590604 140.01708352 2.10732102 150.91208339 C2.14032311 156.67836332 2.18041153 162.44439356 2.2377243 168.21048737 C2.29150449 173.64405564 2.32598376 179.07741341 2.34602928 184.51120758 C2.35669873 186.49933903 2.37425876 188.48744809 2.39944649 190.47544861 C2.5295678 201.07123941 2.44527967 210.17468844 -2 220 C-2.33 220 -2.66 220 -3 220 C-2.67 216.04 -2.34 212.08 -2 208 C-1.34 208 -0.68 208 0 208 C-0.16238096 206.6922184 -0.32476192 205.3844368 -0.49206352 204.03702545 C-0.99643792 199.47546726 -1.14074167 194.99320865 -1.12698364 190.40759277 C-1.12854363 189.59206515 -1.13010362 188.77653752 -1.13171089 187.93629694 C-1.13566851 185.23029883 -1.13255181 182.5243578 -1.12939453 179.81835938 C-1.13075081 177.86793994 -1.13253202 175.91752075 -1.13470459 173.96710205 C-1.13924949 168.69087021 -1.13750213 163.414658 -1.1343255 158.13842583 C-1.13178957 152.61624983 -1.13414261 147.09407548 -1.13571167 141.57189941 C-1.13752854 132.30834654 -1.13513843 123.04480166 -1.13037109 113.78125 C-1.12491655 103.0582368 -1.1267017 92.33524257 -1.1321975 81.61222982 C-1.13672707 72.40701176 -1.13738033 63.20179942 -1.13475883 53.9965806 C-1.13319685 48.49752904 -1.13300042 42.99848642 -1.13629532 37.49943542 C-1.1391722 32.33826553 -1.13720177 27.17712028 -1.13140106 22.01595306 C-1.13007302 20.11677339 -1.13046831 18.21759165 -1.13266373 16.31841278 C-1.1353732 13.73775936 -1.13199678 11.15718631 -1.12698364 8.57653809 C-1.12921436 7.81518224 -1.13144509 7.0538264 -1.13374341 6.26939917 C-1.11415071 1.11415071 -1.11415071 1.11415071 0 0 Z " fill="#164CE4" transform="translate(429,57)"/>
<path d="M0 0 C0.13258795 8.07768659 0.26308867 16.15540341 0.39115143 24.23316288 C0.45072072 27.98675716 0.51092547 31.74033868 0.57275391 35.49389648 C0.86057725 52.9970394 1.08017619 70.49375188 1 88 C0.67 88 0.34 88 0 88 C-1.05525816 70.99674823 -1.30238088 53.98821546 -1.53222656 36.95874023 C-1.58332975 33.23026803 -1.6385421 29.50185662 -1.69335938 25.7734375 C-1.799486 18.51567709 -1.90122564 11.2578646 -2 4 C-3.46300982 4.93018526 -4.92025579 5.86944027 -6.375 6.8125 C-7.18710937 7.33457031 -7.99921875 7.85664063 -8.8359375 8.39453125 C-11.23350241 9.98437197 -11.23350241 9.98437197 -13 13 C-16.125 13.6875 -16.125 13.6875 -19 14 C-19 14.66 -19 15.32 -19 16 C-21.31 16.33 -23.62 16.66 -26 17 C-23.76328859 14.59304605 -21.44123202 12.88765166 -18.65625 11.15234375 C-17.40521484 10.36827148 -17.40521484 10.36827148 -16.12890625 9.56835938 C-14.82759766 8.76108398 -14.82759766 8.76108398 -13.5 7.9375 C-11.78110653 6.86351084 -10.06235076 5.78930125 -8.34375 4.71484375 C-7.58255859 4.24167725 -6.82136719 3.76851074 -6.03710938 3.28100586 C-0.81951591 0 -0.81951591 0 0 0 Z " fill="#A9E8F5" transform="translate(289,23)"/>
<path d="M0 0 C0.33 0 0.66 0 1 0 C0.85552017 1.50013097 0.70932785 3.00009702 0.5625 4.5 C0.48128906 5.3353125 0.40007813 6.170625 0.31640625 7.03125 C0.07950384 9.254038 -0.19964657 11.47239344 -0.5 13.6875 C-1.1236833 18.6117446 -1.34278968 23.54391143 -1.5625 28.5 C-1.60568359 29.4178125 -1.64886719 30.335625 -1.69335938 31.28125 C-1.79833456 33.52072061 -1.90049248 35.76028092 -2 38 C-4.8205169 34.66666184 -6.2112322 31.27937741 -7.6875 27.1875 C-8.12449219 26.00542969 -8.56148437 24.82335937 -9.01171875 23.60546875 C-10.02736536 19.90016511 -10.18105669 16.82176411 -10 13 C-9.01 13 -8.02 13 -7 13 C-6.67 11.68 -6.34 10.36 -6 9 C-5.34 10.32 -4.68 11.64 -4 13 C-3.34 13 -2.68 13 -2 13 C-1.93941406 12.39671875 -1.87882812 11.7934375 -1.81640625 11.171875 C-1.73261719 10.37265625 -1.64882813 9.5734375 -1.5625 8.75 C-1.48128906 7.96109375 -1.40007813 7.1721875 -1.31640625 6.359375 C-1.02365007 4.17635361 -0.57935581 2.1226818 0 0 Z " fill="#2AB5FA" transform="translate(43,440)"/>
<path d="M0 0 C0.66 0.33 1.32 0.66 2 1 C1.34773438 1.38671875 0.69546875 1.7734375 0.0234375 2.171875 C-0.85054687 2.69265625 -1.72453125 3.2134375 -2.625 3.75 C-3.48351562 4.26046875 -4.34203125 4.7709375 -5.2265625 5.296875 C-7.15302879 6.4798881 -9.03713663 7.73358445 -10.8828125 9.0390625 C-14.26296378 11.16542333 -17.46336274 12.37621537 -21.25 13.625 C-26.07569791 15.07623669 -26.07569791 15.07623669 -30 18 C-32.4609375 18.88671875 -32.4609375 18.88671875 -35.375 19.6875 C-36.33148438 19.95949219 -37.28796875 20.23148437 -38.2734375 20.51171875 C-41.02872322 21.00514384 -42.37525317 20.76108552 -45 20 C-43.84628906 19.56171875 -42.69257813 19.1234375 -41.50390625 18.671875 C-30.06604349 14.24680874 -19.02165179 9.26560259 -8.05297852 3.77441406 C-7.03260498 3.27006836 -6.01223145 2.76572266 -4.9609375 2.24609375 C-4.05134277 1.78904053 -3.14174805 1.3319873 -2.20458984 0.86108398 C-1.4770752 0.57692627 -0.74956055 0.29276855 0 0 Z " fill="#0961E3" transform="translate(226,313)"/>
<path d="M0 0 C1.98 0 3.96 0 6 0 C6 0.66 6 1.32 6 2 C5.09757568 2.31751221 4.19515137 2.63502441 3.26538086 2.9621582 C-0.11062552 4.15069187 -3.48552227 5.3423498 -6.86010742 6.53491211 C-8.31553976 7.04877443 -9.77126415 7.56181041 -11.22729492 8.07397461 C-13.33070601 8.81402366 -15.43301818 9.55712499 -17.53515625 10.30078125 C-18.17711441 10.52590897 -18.81907257 10.75103668 -19.48048401 10.98298645 C-22.65147779 12.10797845 -25.72720328 13.32181324 -28.77905273 14.73120117 C-32 16 -32 16 -35 15 C-34.34 15 -33.68 15 -33 15 C-33 14.34 -33 13.68 -33 13 C-24.57142857 9.57142857 -24.57142857 9.57142857 -20 10 C-20 9.34 -20 8.68 -20 8 C-18.35 8 -16.7 8 -15 8 C-15 7.34 -15 6.68 -15 6 C-13.25307205 5.32532438 -11.50231475 4.66055844 -9.75 4 C-8.77546875 3.62875 -7.8009375 3.2575 -6.796875 2.875 C-4 2 -4 2 0 2 C0 1.34 0 0.68 0 0 Z " fill="#6A90E5" transform="translate(217,385)"/>
<path d="M0 0 C0.33 0 0.66 0 1 0 C1.05607422 1.81371094 1.05607422 1.81371094 1.11328125 3.6640625 C1.45944579 12.82006769 2.18054176 21.39282016 4.37890625 30.3125 C5 33 5 33 5 36 C2.00779732 34.63629701 -0.29026529 33.05091917 -2.75 30.875 C-3.36359375 30.33617187 -3.9771875 29.79734375 -4.609375 29.2421875 C-5.06828125 28.83226562 -5.5271875 28.42234375 -6 28 C-4.125 27.375 -4.125 27.375 -2 27 C-1.34 27.66 -0.68 28.32 0 29 C0.33 28.01 0.66 27.02 1 26 C0.01 26 -0.98 26 -2 26 C-1.67 25.01 -1.34 24.02 -1 23 C-1 23.66 -1 24.32 -1 25 C-0.34 25 0.32 25 1 25 C0.67 24.34 0.34 23.68 0 23 C-0.08449628 21.2595583 -0.10723024 19.51590278 -0.09765625 17.7734375 C-0.09443359 16.7421875 -0.09121094 15.7109375 -0.08789062 14.6484375 C-0.07951172 13.56820313 -0.07113281 12.48796875 -0.0625 11.375 C-0.05798828 10.28703125 -0.05347656 9.1990625 -0.04882812 8.078125 C-0.03701776 5.38536211 -0.02054778 2.69270812 0 0 Z " fill="#6E92E4" transform="translate(78,492)"/>
<path d="M0 0 C0.33 1.32 0.66 2.64 1 4 C1.66 4 2.32 4 3 4 C3 4.99 3 5.98 3 7 C3.66 7.33 4.32 7.66 5 8 C5.28875 8.78375 5.5775 9.5675 5.875 10.375 C7.15083878 13.35195715 8.45055183 14.13040468 11 16 C11 16.99 11 17.98 11 19 C11.66 19 12.32 19 13 19 C13 19.99 13 20.98 13 22 C14.65 22.33 16.3 22.66 18 23 C18.33 23.99 18.66 24.98 19 26 C18.67 26.66 18.34 27.32 18 28 C18.66 28.33 19.32 28.66 20 29 C19.67 29.99 19.34 30.98 19 32 C0.03536802 8.74740895 0.03536802 8.74740895 -1 1 C-0.67 0.67 -0.34 0.34 0 0 Z " fill="#537BE1" transform="translate(42,477)"/>
<path d="M0 0 C0.66 0.33 1.32 0.66 2 1 C1.01 2.485 1.01 2.485 0 4 C-0.99 4 -1.98 4 -3 4 C-3.33 4.99 -3.66 5.98 -4 7 C-6.70879335 8.35439668 -9.00933268 8.06501451 -12 8 C-12 8.66 -12 9.32 -12 10 C-17.41176471 14 -17.41176471 14 -20 14 C-20 14.66 -20 15.32 -20 16 C-22.97 16.66 -25.94 17.32 -29 18 C-26.50964517 15.50964517 -24.77013105 14.1373864 -21.796875 12.44140625 C-20.98089844 11.97283203 -20.16492188 11.50425781 -19.32421875 11.02148438 C-18.47472656 10.54001953 -17.62523437 10.05855469 -16.75 9.5625 C-15.91597656 9.08490234 -15.08195313 8.60730469 -14.22265625 8.11523438 C-12.58510599 7.17820601 -10.94518445 6.24530757 -9.30273438 5.31689453 C-7.82465782 4.47160775 -6.35610294 3.6093192 -4.90039062 2.72607422 C-3.29957762 1.76102451 -1.65348821 0.87172241 0 0 Z " fill="#8CE6F6" transform="translate(148,99)"/>
<path d="M0 0 C-0.66 1.65 -1.32 3.3 -2 5 C-2.99 5 -3.98 5 -5 5 C-5.33 5.99 -5.66 6.98 -6 8 C-6.66 8 -7.32 8 -8 8 C-8 8.66 -8 9.32 -8 10 C-8.9075 10.0825 -9.815 10.165 -10.75 10.25 C-14.45247886 11.1044182 -15.46920206 12.29466427 -18 15 C-18.99 15 -19.98 15 -21 15 C-20.70458984 13.14306641 -20.70458984 13.14306641 -20 11 C-17.55803564 9.29237337 -15.21386764 7.81860649 -12.625 6.375 C-11.26282192 5.59149156 -9.90083576 4.80764934 -8.5390625 4.0234375 C-7.62954834 3.51176025 -7.62954834 3.51176025 -6.70166016 2.98974609 C-1.56142082 0 -1.56142082 0 0 0 Z " fill="#4573E2" transform="translate(422,50)"/>
<path d="M0 0 C1.25541557 3.76624671 0.37061958 5.37188934 -1 9 C-1.66 9 -2.32 9 -3 9 C-3.1546875 10.5778125 -3.1546875 10.5778125 -3.3125 12.1875 C-4 16 -4 16 -5.4140625 18.2578125 C-7.34263695 21.59244122 -8.18750422 24.97506936 -9.0625 28.6875 C-10.73546875 35.73546875 -10.73546875 35.73546875 -13 38 C-12.60389716 30.98213115 -11.29272932 24.97834103 -8.75 18.4375 C-8.43861084 17.61338623 -8.12722168 16.78927246 -7.80639648 15.94018555 C-5.64045891 10.3287668 -3.18536041 5.11588188 0 0 Z " fill="#095FE5" transform="translate(56,412)"/>
<path d="M0 0 C-0.93972656 0.59748047 -0.93972656 0.59748047 -1.8984375 1.20703125 C-2.71570313 1.73683594 -3.53296875 2.26664063 -4.375 2.8125 C-5.18710937 3.33457031 -5.99921875 3.85664063 -6.8359375 4.39453125 C-9.23350241 5.98437197 -9.23350241 5.98437197 -11 9 C-14.125 9.6875 -14.125 9.6875 -17 10 C-17 10.66 -17 11.32 -17 12 C-19.31 12.33 -21.62 12.66 -24 13 C-20.61884635 9.42790598 -16.65493361 6.93705548 -12.5625 4.25 C-11.79873047 3.73050781 -11.03496094 3.21101563 -10.24804688 2.67578125 C-9.50748047 2.18980469 -8.76691406 1.70382813 -8.00390625 1.203125 C-7.33174072 0.75614258 -6.6595752 0.30916016 -5.96704102 -0.15136719 C-3.55246882 -1.19307663 -2.42640759 -0.88429979 0 0 Z " fill="#8AE4F6" transform="translate(287,27)"/>
<path d="M0 0 C0.66 0 1.32 0 2 0 C0.59808647 2.99254618 -1.03367489 5.5954611 -3 8.25 C-3.515625 8.95640625 -4.03125 9.6628125 -4.5625 10.390625 C-5.036875 10.92171875 -5.51125 11.4528125 -6 12 C-6.66 12 -7.32 12 -8 12 C-8.08121094 12.70511719 -8.16242187 13.41023437 -8.24609375 14.13671875 C-9.18447482 17.70062198 -10.84048138 19.88507864 -13.0625 22.8125 C-13.79597656 23.78832031 -14.52945313 24.76414063 -15.28515625 25.76953125 C-15.85105469 26.50558594 -16.41695312 27.24164063 -17 28 C-17.33 27.34 -17.66 26.68 -18 26 C-14.46308542 18.43781024 -9.02435335 11.62116201 -4 5 C-3.30132812 4.06800781 -2.60265625 3.13601562 -1.8828125 2.17578125 C-1.26148437 1.45777344 -0.64015625 0.73976562 0 0 Z " fill="#2FC2F6" transform="translate(49,224)"/>
<path d="M0 0 C1.98 0 3.96 0 6 0 C1.75143892 3.54046756 -3.2107271 5.65589386 -8.15625 8.0390625 C-11.09802682 9.47702057 -13.72576483 10.78505892 -16.3125 12.8125 C-16.869375 13.204375 -17.42625 13.59625 -18 14 C-18.99 13.67 -19.98 13.34 -21 13 C-18.04748231 8.25029762 -15.24371408 7.16213109 -10.1171875 5.69140625 C-7.66005429 4.88898452 -5.9971655 3.61309521 -4 2 C-3.01 2 -2.02 2 -1 2 C-0.67 1.34 -0.34 0.68 0 0 Z " fill="#2EB0FE" transform="translate(122,355)"/>
<path d="M0 0 C-3.48326424 2.32217616 -7.11024921 3.71673124 -11 5.1875 C-12.08667969 5.61579102 -12.08667969 5.61579102 -13.1953125 6.05273438 C-18.64407774 8.11864075 -18.64407774 8.11864075 -22 7 C-21.34 7 -20.68 7 -20 7 C-19.67 5.35 -19.34 3.7 -19 2 C-16.69 2.33 -14.38 2.66 -12 3 C-12 2.34 -12 1.68 -12 1 C-7.93631321 0.22596442 -4.13574827 -0.0984702 0 0 Z M-17 1 C-15 2 -15 2 -15 2 Z " fill="#5C87E2" transform="translate(316,354)"/>
<path d="M0 0 C-12.16003268 5.12748045 -12.16003268 5.12748045 -17.9921875 7.23828125 C-19.53310736 7.82287147 -21.05631893 8.45431346 -22.5703125 9.10546875 C-23.45460937 9.48316406 -24.33890625 9.86085937 -25.25 10.25 C-26.05953125 10.60578125 -26.8690625 10.9615625 -27.703125 11.328125 C-30.29857233 12.08733748 -31.45981226 11.74161189 -34 11 C-3.15331808 -1.57665904 -3.15331808 -1.57665904 0 0 Z " fill="#2FC1F3" transform="translate(238,132)"/>
<path d="M0 0 C2.375 0.3125 2.375 0.3125 5 1 C5.66 1.99 6.32 2.98 7 4 C4.23113877 5.00577013 1.46015896 6.00480147 -1.3125 7 C-2.49102539 7.42925781 -2.49102539 7.42925781 -3.69335938 7.8671875 C-4.45068359 8.13789063 -5.20800781 8.40859375 -5.98828125 8.6875 C-6.68477783 8.93886719 -7.38127441 9.19023437 -8.09887695 9.44921875 C-10 10 -10 10 -13 10 C-13 9.34 -13 8.68 -13 8 C-11.35 7.34 -9.7 6.68 -8 6 C-8 5.67 -8 5.34 -8 5 C-7.04287109 4.81824219 -7.04287109 4.81824219 -6.06640625 4.6328125 C-5.24011719 4.46523438 -4.41382813 4.29765625 -3.5625 4.125 C-2.73878906 3.96257812 -1.91507812 3.80015625 -1.06640625 3.6328125 C-0.38449219 3.42398437 0.29742187 3.21515625 1 3 C1.33 2.34 1.66 1.68 2 1 C1.34 0.67 0.68 0.34 0 0 Z " fill="#537DE4" transform="translate(272,364)"/>
<path d="M0 0 C0.33 0 0.66 0 1 0 C0.89008434 3.10489399 0.75946585 6.20857994 0.625 9.3125 C0.5940625 10.19357422 0.563125 11.07464844 0.53125 11.98242188 C0.49257813 12.82998047 0.45390625 13.67753906 0.4140625 14.55078125 C0.36693115 15.72120972 0.36693115 15.72120972 0.31884766 16.9152832 C0 19 0 19 -2 22 C-2.45394552 24.27912938 -2.45394552 24.27912938 -2.625 26.6875 C-2.69976563 27.49574219 -2.77453125 28.30398437 -2.8515625 29.13671875 C-2.90054687 29.75160156 -2.94953125 30.36648437 -3 31 C-3.33 31 -3.66 31 -4 31 C-4.87489363 20.40406605 -2.27056079 10.27338176 0 0 Z " fill="#92E6F5" transform="translate(33,225)"/>
<path d="M0 0 C2.046875 3.71875 2.046875 3.71875 1.625 6.25 C1.41875 6.8275 1.2125 7.405 1 8 C0.34 8 -0.32 8 -1 8 C-1 9.32 -1 10.64 -1 12 C-1.66 12 -2.32 12 -3 12 C-3.33 15.96 -3.66 19.92 -4 24 C-4.99 24.33 -5.98 24.66 -7 25 C-6.38574623 19.2073537 -4.84466956 14.05390934 -2.9375 8.5625 C-2.65583984 7.73556641 -2.37417969 6.90863281 -2.08398438 6.05664062 C-1.39482208 4.03587662 -0.6981769 2.01766718 0 0 Z " fill="#96E7FA" transform="translate(41,200)"/>
<path d="M0 0 C0.625 1.8125 0.625 1.8125 1 4 C0.01 5.485 0.01 5.485 -1 7 C-1.16699232 10.12521833 -1.16699232 10.12521833 -1 13 C-2.32 13 -3.64 13 -5 13 C-5.99 14.98 -6.98 16.96 -8 19 C-8.66 19 -9.32 19 -10 19 C-8.62394084 14.23448987 -6.53221934 10.2751447 -3.875 6.125 C-3.50246094 5.53203125 -3.12992188 4.9390625 -2.74609375 4.328125 C-1.83635 2.8818657 -0.91896202 1.44041954 0 0 Z " fill="#85E4F5" transform="translate(55,175)"/>
<path d="M0 0 C-7.31133529 5.90102696 -12.54552997 8.32601621 -22 8 C-18.32191116 5.54794077 -14.50941355 3.9987115 -10.4375 2.3125 C-9.65697266 1.97927734 -8.87644531 1.64605469 -8.07226562 1.30273438 C-7.32525391 0.99271484 -6.57824219 0.68269531 -5.80859375 0.36328125 C-5.12595459 0.07751221 -4.44331543 -0.20825684 -3.73999023 -0.50268555 C-2 -1 -2 -1 0 0 Z " fill="#557DE4" transform="translate(349,89)"/>
<path d="M0 0 C1.98 0 3.96 0 6 0 C2.7994019 3.2005981 -1.36610631 4.45344357 -5.5 6.1875 C-6.38042969 6.56841797 -7.26085937 6.94933594 -8.16796875 7.34179688 C-9.00972656 7.69693359 -9.85148438 8.05207031 -10.71875 8.41796875 C-11.49154297 8.74563232 -12.26433594 9.0732959 -13.06054688 9.41088867 C-15 10 -15 10 -17 9 C-16.67 8.01 -16.34 7.02 -16 6 C-14.35 6 -12.7 6 -11 6 C-11 5.34 -11 4.68 -11 4 C-9.02 4 -7.04 4 -5 4 C-5 3.34 -5 2.68 -5 2 C-3.35 2 -1.7 2 0 2 C0 1.34 0 0.68 0 0 Z " fill="#6089E4" transform="translate(176,401)"/>
<path d="M0 0 C-2.98331643 2.44005819 -5.82978476 3.88475082 -9.421875 5.26171875 C-10.44667969 5.65810547 -11.47148437 6.05449219 -12.52734375 6.46289062 C-14.12255859 7.06907227 -14.12255859 7.06907227 -15.75 7.6875 C-16.82894531 8.10322266 -17.90789062 8.51894531 -19.01953125 8.94726562 C-21.67757722 9.97049571 -24.33772338 10.98783976 -27 12 C-27.33 11.34 -27.66 10.68 -28 10 C-16.47835991 4.44419134 -16.47835991 4.44419134 -11 4 C-11 3.34 -11 2.68 -11 2 C-7.17679443 0.57741188 -4.08718695 -0.24042276 0 0 Z " fill="#2DB0FE" transform="translate(176,335)"/>
<path d="M0 0 C0.99 0.66 1.98 1.32 3 2 C2.34 2 1.68 2 1 2 C1 2.99 1 3.98 1 5 C2.98 5 4.96 5 7 5 C4.23145402 7.14909962 1.42165474 9.01778828 -1.625 10.75 C-2.40101563 11.19859375 -3.17703125 11.6471875 -3.9765625 12.109375 C-4.64429688 12.40328125 -5.31203125 12.6971875 -6 13 C-6.66 12.67 -7.32 12.34 -8 12 C-7.67 11.34 -7.34 10.68 -7 10 C-5.68 10 -4.36 10 -3 10 C-2.814375 8.9171875 -2.814375 8.9171875 -2.625 7.8125 C-2.0095069 5.04278106 -1.11555626 2.6029646 0 0 Z " fill="#517CE6" transform="translate(372,320)"/>
<path d="M0 0 C-11.88 5.445 -11.88 5.445 -24 11 C-24 10.01 -24 9.02 -24 8 C-22.5437455 7.32880451 -21.08492133 6.66318193 -19.625 6 C-18.81289062 5.62875 -18.00078125 5.2575 -17.1640625 4.875 C-15 4 -15 4 -13 4 C-13 3.34 -13 2.68 -13 2 C-11.5882217 1.46605821 -10.17029756 0.94834896 -8.75 0.4375 C-7.96109375 0.14746094 -7.1721875 -0.14257812 -6.359375 -0.44140625 C-4 -1 -4 -1 0 0 Z " fill="#2FAFFE" transform="translate(216,319)"/>
<path d="M0 0 C1.53245958 4.42485018 0.20881903 7.21071016 -1.54296875 11.3828125 C-3.93389534 15.67750638 -7.31722858 18.79992192 -11 22 C-11.66 21.67 -12.32 21.34 -13 21 C-12.09507812 19.85724609 -12.09507812 19.85724609 -11.171875 18.69140625 C-6.58058371 12.75975411 -2.57008974 7.11717159 0 0 Z " fill="#095CE6" transform="translate(279,260)"/>
<path d="M0 0 C0.66 0.33 1.32 0.66 2 1 C1.20335938 1.7734375 0.40671875 2.546875 -0.4140625 3.34375 C-8.13780341 10.90199748 -8.13780341 10.90199748 -14.81640625 19.37890625 C-16.07230782 21.09903547 -17.46073178 22.53211813 -19 24 C-17.4133473 14.48008379 -6.59383682 6.35062152 0 0 Z " fill="#075BE2" transform="translate(78,386)"/>
<path d="M0 0 C0.66 0.33 1.32 0.66 2 1 C-1.15166582 6.8922448 -5.08265382 9.12466981 -11 12 C-11.7528125 12.37640625 -12.505625 12.7528125 -13.28125 13.140625 C-14.13203125 13.56601563 -14.13203125 13.56601563 -15 14 C-10.55487173 8.41509524 -5.75545909 4.20788009 0 0 Z " fill="#8AE6F7" transform="translate(97,131)"/>
<path d="M0 0 C0 0.66 0 1.32 0 2 C-1.32 2.33 -2.64 2.66 -4 3 C-4 3.66 -4 4.32 -4 5 C-4.99 5 -5.98 5 -7 5 C-7 5.66 -7 6.32 -7 7 C-8.4117783 7.53394179 -9.82970244 8.05165104 -11.25 8.5625 C-12.03890625 8.85253906 -12.8278125 9.14257812 -13.640625 9.44140625 C-16.22741227 10.05384098 -17.49494634 9.72332269 -20 9 C-17.04492094 7.49352402 -14.08542659 5.99593635 -11.125 4.5 C-10.28324219 4.07074219 -9.44148437 3.64148438 -8.57421875 3.19921875 C-7.76855469 2.79316406 -6.96289062 2.38710937 -6.1328125 1.96875 C-5.38918457 1.59169922 -4.64555664 1.21464844 -3.87939453 0.82617188 C-2 0 -2 0 0 0 Z " fill="#90E6F6" transform="translate(179,84)"/>
<path d="M0 0 C0 0.66 0 1.32 0 2 C-0.66 2 -1.32 2 -2 2 C-2.33 2.99 -2.66 3.98 -3 5 C-4.98 5.33 -6.96 5.66 -9 6 C-9.33 6.99 -9.66 7.98 -10 9 C-12.31 9 -14.62 9 -17 9 C-13.94746898 6.59124922 -10.78648153 4.67456202 -7.375 2.8125 C-6.41335937 2.28269531 -5.45171875 1.75289062 -4.4609375 1.20703125 C-2 0 -2 0 0 0 Z " fill="#89E7F4" transform="translate(238,54)"/>
<path d="M0 0 C1.134375 0.020625 2.26875 0.04125 3.4375 0.0625 C0.36354658 1.66818861 -2.75266502 2.97143836 -6 4.1875 C-7.39025391 4.71730469 -7.39025391 4.71730469 -8.80859375 5.2578125 C-11.55019141 6.05890345 -13.72550727 6.21696421 -16.5625 6.0625 C-16.5625 5.4025 -16.5625 4.7425 -16.5625 4.0625 C-12.5879058 2.25586627 -8.87232872 1.64266925 -4.5625 1.0625 C-3.5625 0.0625 -3.5625 0.0625 0 0 Z " fill="#4973DC" transform="translate(240.5625,378.9375)"/>
<path d="M0 0 C0.33 1.32 0.66 2.64 1 4 C0.01 4 -0.98 4 -2 4 C-2 4.99 -2 5.98 -2 7 C-4.98818899 10.41507313 -8.0194435 12.83912647 -12 15 C-10.42921185 11.31766057 -8.13566869 8.74453885 -5.4375 5.8125 C-4.63183594 4.93207031 -3.82617188 4.05164063 -2.99609375 3.14453125 C-1 1 -1 1 0 0 Z " fill="#93E7F5" transform="translate(73,153)"/>
<path d="M0 0 C-1.98 0.99 -3.96 1.98 -6 3 C-5.67 4.32 -5.34 5.64 -5 7 C-6.32 7.33 -7.64 7.66 -9 8 C-9 7.34 -9 6.68 -9 6 C-11.31 5.67 -13.62 5.34 -16 5 C-13.13879225 3.09252817 -10.64745007 1.99646294 -7.4375 0.8125 C-6.46683594 0.44769531 -5.49617188 0.08289063 -4.49609375 -0.29296875 C-2 -1 -2 -1 0 0 Z " fill="#507CE6" transform="translate(309,105)"/>
<path d="M0 0 C1.35158203 0.15275391 1.35158203 0.15275391 2.73046875 0.30859375 C3.41753906 0.39238281 4.10460937 0.47617187 4.8125 0.5625 C1.79759443 2.57243705 -0.4024927 3.28873341 -3.875 4.1875 C-4.86886719 4.44789063 -5.86273438 4.70828125 -6.88671875 4.9765625 C-7.64597656 5.16992188 -8.40523438 5.36328125 -9.1875 5.5625 C-8.8575 3.9125 -8.5275 2.2625 -8.1875 0.5625 C-4.98734144 -0.50421952 -3.30205706 -0.38595472 0 0 Z " fill="#4D7AE8" transform="translate(289.1875,361.4375)"/>
<path d="M0 0 C0 0.66 0 1.32 0 2 C-6.66666667 4.66666667 -13.33333333 7.33333333 -20 10 C-20 9.34 -20 8.68 -20 8 C-17.42141033 6.65673469 -14.83782579 5.32525335 -12.25 4 C-11.52039063 3.6184375 -10.79078125 3.236875 -10.0390625 2.84375 C-8.97558594 2.30234375 -8.97558594 2.30234375 -7.890625 1.75 C-7.24125977 1.41484375 -6.59189453 1.0796875 -5.92285156 0.734375 C-4 0 -4 0 0 0 Z " fill="#085FE1" transform="translate(134,354)"/>
<path d="M0 0 C-6.39400348 3.42120706 -12.55265421 6.45135429 -20 6 C-18.68 5.67 -17.36 5.34 -16 5 C-16 4.34 -16 3.68 -16 3 C-15.30132812 2.79503906 -14.60265625 2.59007813 -13.8828125 2.37890625 C-12.97273437 2.10949219 -12.06265625 1.84007813 -11.125 1.5625 C-10.22007812 1.29566406 -9.31515625 1.02882813 -8.3828125 0.75390625 C-3.07978723 -0.92393617 -3.07978723 -0.92393617 0 0 Z " fill="#30C3F5" transform="translate(266,122)"/>
<path d="M0 0 C-2.36139217 2.75495753 -4.41052654 3.69238528 -7.875 4.6875 C-8.71804688 4.93886719 -9.56109375 5.19023438 -10.4296875 5.44921875 C-13.03338621 6.00715419 -15.34600969 6.09988136 -18 6 C-14.87754953 3.91836635 -11.92965119 2.67424387 -8.4375 1.3125 C-7.28121094 0.85488281 -6.12492187 0.39726563 -4.93359375 -0.07421875 C-2 -1 -2 -1 0 0 Z " fill="#5985E1" transform="translate(327,98)"/>
<path d="M0 0 C5.875 0.875 5.875 0.875 7 2 C7.33 1.34 7.66 0.68 8 0 C8.66 0.33 9.32 0.66 10 1 C9.67 1.99 9.34 2.98 9 4 C9.99 4 10.98 4 12 4 C11.67 5.32 11.34 6.64 11 8 C10.34 7.34 9.68 6.68 9 6 C7.5459375 5.566875 7.5459375 5.566875 6.0625 5.125 C2.75230833 3.90901122 1.77816117 2.96360195 0 0 Z " fill="#285DE9" transform="translate(67,514)"/>
<path d="M0 0 C0.99 0.33 1.98 0.66 3 1 C0.36 6.28 -2.28 11.56 -5 17 C-6.10084497 12.59662012 -5.7915332 11.73201586 -4.0625 7.75 C-3.68222656 6.85796875 -3.30195312 5.9659375 -2.91015625 5.046875 C-2.60980469 4.37140625 -2.30945312 3.6959375 -2 3 C-1.34 3 -0.68 3 0 3 C0 2.01 0 1.02 0 0 Z " fill="#2FB0FE" transform="translate(53,413)"/>
<path d="M0 0 C-2.33697029 2.33697029 -4.49097899 3.27094054 -7.5 4.625 C-8.4796875 5.07101562 -9.459375 5.51703125 -10.46875 5.9765625 C-13 7 -13 7 -15 7 C-15 6.01 -15 5.02 -15 4 C-13.68 4 -12.36 4 -11 4 C-11 3.34 -11 2.68 -11 2 C-7.17679443 0.57741188 -4.08718695 -0.24042276 0 0 Z " fill="#567DE4" transform="translate(159,411)"/>
<path d="M0 0 C3.3 0 6.6 0 10 0 C6.81404865 2.63978826 3.69029454 5.10498388 0 7 C-0.66 6.67 -1.32 6.34 -2 6 C-1.34 4.02 -0.68 2.04 0 0 Z " fill="#537EE5" transform="translate(134,418)"/>
<path d="M0 0 C0.66 0 1.32 0 2 0 C3.91302307 3.26613695 4.35674661 5.99445248 4.625 9.75 C4.69976562 10.73484375 4.77453125 11.7196875 4.8515625 12.734375 C4.92503906 13.85585938 4.92503906 13.85585938 5 15 C2.82813579 12.82813579 2.3206752 11.50023469 1.375 8.625 C1.11460938 7.85414063 0.85421875 7.08328125 0.5859375 6.2890625 C0 4 0 4 0 0 Z " fill="#67C5EF" transform="translate(33,456)"/>
<path d="M0 0 C0.33 0.66 0.66 1.32 1 2 C-0.3984375 4.6015625 -0.3984375 4.6015625 -2.375 7.625 C-3.02210938 8.62789063 -3.66921875 9.63078125 -4.3359375 10.6640625 C-4.88507813 11.43492187 -5.43421875 12.20578125 -6 13 C-6.33 13 -6.66 13 -7 13 C-7.33 11.02 -7.66 9.04 -8 7 C-6.68 7 -5.36 7 -4 7 C-4 5.68 -4 4.36 -4 3 C-3.34 3 -2.68 3 -2 3 C-2 2.34 -2 1.68 -2 1 C-1.34 0.67 -0.68 0.34 0 0 Z " fill="#597FE2" transform="translate(423,281)"/>
<path d="M0 0 C1.28497537 3.85492611 0.4052209 5.40346836 -0.9375 9.1875 C-1.31777344 10.27417969 -1.69804687 11.36085938 -2.08984375 12.48046875 C-2.39019531 13.31191406 -2.69054687 14.14335937 -3 15 C-3.33 15 -3.66 15 -4 15 C-3.67 11.04 -3.34 7.08 -3 3 C-2.34 3 -1.68 3 -1 3 C-0.67 2.01 -0.34 1.02 0 0 Z " fill="#5A83E0" transform="translate(430,262)"/>
<path d="M0 0 C0.99 0.33 1.98 0.66 3 1 C3.33 1.99 3.66 2.98 4 4 C1.69 5.32 -0.62 6.64 -3 8 C-2.25 2.25 -2.25 2.25 0 0 Z " fill="#3D6EE8" transform="translate(388,313)"/>
<path d="M0 0 C-3.01887244 3.48331435 -5.56909529 4.79157144 -10 6 C-10 5.34 -10 4.68 -10 4 C-9.34 4 -8.68 4 -8 4 C-8 3.01 -8 2.02 -8 1 C-5.29120665 -0.35439668 -2.99066732 -0.06501451 0 0 Z " fill="#2CB3FE" transform="translate(235,307)"/>
<path d="M0 0 C2.12109375 0.390625 2.12109375 0.390625 4 1 C2.58994275 2.15395711 1.17166542 3.29787466 -0.25 4.4375 C-1.43335938 5.39462891 -1.43335938 5.39462891 -2.640625 6.37109375 C-4.86247492 7.90505305 -6.36743482 8.57130246 -9 9 C-9 8.34 -9 7.68 -9 7 C-7.34151823 5.98648336 -5.67334039 4.98879205 -4 4 C-3.319375 3.2575 -2.63875 2.515 -1.9375 1.75 C-1.298125 1.1725 -0.65875 0.595 0 0 Z " fill="#2FB0FE" transform="translate(244,298)"/>
<path d="M0 0 C0.66 0 1.32 0 2 0 C0.07289294 11.52164009 0.07289294 11.52164009 -2 17 C-4.06067435 11.27590459 -2.00350206 5.47623897 0 0 Z " fill="#2DACFE" transform="translate(285,237)"/>
<path d="M0 0 C0.66 0.33 1.32 0.66 2 1 C1.34 2.32 0.68 3.64 0 5 C-1.65 5 -3.3 5 -5 5 C-5.33 5.99 -5.66 6.98 -6 8 C-7.32 7.67 -8.64 7.34 -10 7 C-6.7 4.69 -3.4 2.38 0 0 Z " fill="#8CE7F6" transform="translate(117,117)"/>
<path d="M0 0 C0.33 0 0.66 0 1 0 C2.20568053 4.67201205 2.09382426 9.21496292 2 14 C-0.5119293 11.38340697 -0.99048487 10.13559064 -1.25 6.4375 C-1 3 -1 3 0 0 Z " fill="#50B0F7" transform="translate(39,464)"/>
<path d="M0 0 C-1.26026798 3.78080393 -2.93546534 4.77295425 -6.0625 7.1875 C-6.98160156 7.90292969 -7.90070313 8.61835938 -8.84765625 9.35546875 C-9.55792969 9.89816406 -10.26820312 10.44085938 -11 11 C-11.33 10.01 -11.66 9.02 -12 8 C-10.35 7.34 -8.7 6.68 -7 6 C-7 5.34 -7 4.68 -7 4 C-6.34 4 -5.68 4 -5 4 C-5 3.34 -5 2.68 -5 2 C-2 0 -2 0 0 0 Z " fill="#2EAFFE" transform="translate(88,377)"/>
<path d="M0 0 C-2.60542016 1.73694677 -4.58342775 2.69100448 -7.5 3.6875 C-8.2734375 3.95949219 -9.046875 4.23148437 -9.84375 4.51171875 C-12 5 -12 5 -15 4 C-11.02108054 -0.81658671 -5.84925005 -0.11469118 0 0 Z " fill="#6990E6" transform="translate(259,374)"/>
<path d="M0 0 C2 1 2 1 2 1 Z M-2 1 C0.31 1.33 2.62 1.66 5 2 C1.92000054 5.67230705 -0.2482602 6.56802365 -5 7 C-4.34 6.67 -3.68 6.34 -3 6 C-2.34444881 3.47266765 -2.34444881 3.47266765 -2 1 Z " fill="#4876E4" transform="translate(299,355)"/>
<path d="M0 0 C0.66 0.33 1.32 0.66 2 1 C2 4 2 7 2 10 C1.67 9.34 1.34 8.68 1 8 C0.34 7.67 -0.32 7.34 -1 7 C-0.34 6.01 0.32 5.02 1 4 C-1.31 4.66 -3.62 5.32 -6 6 C-4 4 -2 2 0 0 Z " fill="#4A74E5" transform="translate(428,44)"/>
<path d="M0 0 C0.33 0.66 0.66 1.32 1 2 C-1.80804268 4.96404505 -4.18315774 7.44499019 -8 9 C-8 8.01 -8 7.02 -8 6 C-6.25 4.39453125 -6.25 4.39453125 -4 2.8125 C-3.2575 2.28269531 -2.515 1.75289062 -1.75 1.20703125 C-1.1725 0.80871094 -0.595 0.41039062 0 0 Z " fill="#6DE2F9" transform="translate(67,163)"/>
<path d="M0 0 C0.33 0.66 0.66 1.32 1 2 C-5.625 5.125 -5.625 5.125 -9 4 C-9 3.34 -9 2.68 -9 2 C-5.86501708 0.14223235 -3.62528568 -0.20140476 0 0 Z " fill="#527DE1" transform="translate(325,349)"/>
<path d="M0 0 C1.485 0.99 1.485 0.99 3 2 C2.34 2 1.68 2 1 2 C1 2.99 1 3.98 1 5 C2.98 5 4.96 5 7 5 C4.61426621 6.89213369 2.92824652 8.02391783 0 9 C-0.87890625 2.84765625 -0.87890625 2.84765625 -1 1 C-0.67 0.67 -0.34 0.34 0 0 Z " fill="#3F6FE8" transform="translate(372,320)"/>
<path d="M0 0 C0 0.66 0 1.32 0 2 C-7.28571429 6.42857143 -7.28571429 6.42857143 -12 7 C-9.20232475 3.70861735 -4.40323273 0 0 0 Z " fill="#96E7F7" transform="translate(263,40)"/>
<path d="M0 0 C1.42944945 2.35438733 2.08661261 3.48032433 1.625 6.25 C1.41875 6.8275 1.2125 7.405 1 8 C0.34 8 -0.32 8 -1 8 C-1.33 9.32 -1.66 10.64 -2 12 C-2.17835515 7.45194365 -1.99785435 4.1205746 0 0 Z " fill="#82E5F6" transform="translate(41,200)"/>
<path d="M0 0 C1.65 0 3.3 0 5 0 C2.19195732 2.96404505 -0.18315774 5.44499019 -4 7 C-4 5.68 -4 4.36 -4 3 C-2.68 3 -1.36 3 0 3 C0 2.01 0 1.02 0 0 Z " fill="#6083E0" transform="translate(113,434)"/>
<path d="M0 0 C1.98 0 3.96 0 6 0 C6 0.66 6 1.32 6 2 C2.04 2.66 -1.92 3.32 -6 4 C-5.34 3.34 -4.68 2.68 -4 2 C-2.68 2 -1.36 2 0 2 C0 1.34 0 0.68 0 0 Z " fill="#3E69DB" transform="translate(217,385)"/>
<path d="M0 0 C-0.375 1.9375 -0.375 1.9375 -1 4 C-3.70879335 5.35439668 -6.00933268 5.06501451 -9 5 C-2.87096774 0 -2.87096774 0 0 0 Z " fill="#8BE7F5" transform="translate(159,94)"/>
<path d="M0 0 C1.98 0 3.96 0 6 0 C4.02 2.97 4.02 2.97 2 6 C1.01 4.68 0.02 3.36 -1 2 C-0.67 1.34 -0.34 0.68 0 0 Z " fill="#4373E4" transform="translate(91,453)"/>
<path d="M0 0 C0 0.66 0 1.32 0 2 C-6.625 5.125 -6.625 5.125 -10 4 C-9.34 4 -8.68 4 -8 4 C-8 3.34 -8 2.68 -8 2 C-4.91190305 0.23537317 -3.76687864 0 0 0 Z " fill="#6486E4" transform="translate(192,396)"/>
<path d="M0 0 C0 0.99 0 1.98 0 3 C-5.17578125 6.22265625 -5.17578125 6.22265625 -7 7 C-7.99 6.67 -8.98 6.34 -10 6 C-6.7 4.02 -3.4 2.04 0 0 Z " fill="#0A60E5" transform="translate(239,305)"/>
<path d="M0 0 C1.485 0.99 1.485 0.99 3 2 C2.67 3.32 2.34 4.64 2 6 C2.66 6.33 3.32 6.66 4 7 C3.67 7.99 3.34 8.98 3 10 C0.86746245 7.40386733 -0.55075623 5.36932827 -1 2 C-0.67 1.34 -0.34 0.68 0 0 Z " fill="#2F67E1" transform="translate(58,499)"/>
<path d="M0 0 C0.66 0 1.32 0 2 0 C2 1.65 2 3.3 2 5 C2.66 5.33 3.32 5.66 4 6 C3.01 6 2.02 6 1 6 C-0.6875 4 -0.6875 4 -2 2 C-1.34 2 -0.68 2 0 2 C0 1.34 0 0.68 0 0 Z " fill="#3C6DE6" transform="translate(64,507)"/>
<path d="M0 0 C-1.28813342 0.83878455 -2.58063256 1.67086783 -3.875 2.5 C-4.59429687 2.9640625 -5.31359375 3.428125 -6.0546875 3.90625 C-8 5 -8 5 -10 5 C-9.67 4.01 -9.34 3.02 -9 2 C-8.01 2 -7.02 2 -6 2 C-6 1.34 -6 0.68 -6 0 C-3.50907189 -1.24546405 -2.58919267 -0.7767578 0 0 Z " fill="#2EACFE" transform="translate(102,370)"/>
<path d="M0 0 C-3.1254959 2.64465038 -6.08788267 3.84414715 -10 5 C-9 2 -9 2 -7.25 0.8125 C-4.70039426 -0.10819096 -2.69076919 -0.14948718 0 0 Z " fill="#2AA4FC" transform="translate(142,349)"/>
<path d="M0 0 C1.32 0 2.64 0 4 0 C4.33 0.99 4.66 1.98 5 3 C3.68 4.32 2.36 5.64 1 7 C0.67 4.69 0.34 2.38 0 0 Z " fill="#436DE6" transform="translate(408,295)"/>
<path d="M0 0 C0.33 1.32 0.66 2.64 1 4 C0.01 4 -0.98 4 -2 4 C-2 4.99 -2 5.98 -2 7 C-2.99 7.33 -3.98 7.66 -5 8 C-4.45773019 4.20411134 -2.79872437 2.52788007 0 0 Z " fill="#80E0F3" transform="translate(73,153)"/>
<path d="M0 0 C-0.33 0.99 -0.66 1.98 -1 3 C-1.886875 2.979375 -2.77375 2.95875 -3.6875 2.9375 C-6.62169631 2.99286219 -9.15493696 3.3305734 -12 4 C-7.87571444 0.61219401 -5.3248712 0 0 0 Z " fill="#1550DC" transform="translate(317,103)"/>
<path d="M0 0 C-3.96 1.98 -3.96 1.98 -8 4 C-8 2.68 -8 1.36 -8 0 C-4.63458162 -1.08174162 -3.70152678 -0.92538169 0 0 Z " fill="#5B81E6" transform="translate(132,426)"/>
<path d="M0 0 C-2.94017338 1.52453435 -5.85472185 2.95157395 -9 4 C-9.99 3.67 -10.98 3.34 -12 3 C-7.89542386 0.01485372 -5.02254631 -0.2954439 0 0 Z " fill="#829FEC" transform="translate(244,379)"/>
<path d="M0 0 C0 0.66 0 1.32 0 2 C-3.3 2.66 -6.6 3.32 -10 4 C-4.66666667 0 -4.66666667 0 0 0 Z " fill="#0C5EE5" transform="translate(170,339)"/>
<path d="M0 0 C0 0.66 0 1.32 0 2 C-4.15267176 5.11450382 -4.15267176 5.11450382 -7.3125 4.6875 C-7.869375 4.460625 -8.42625 4.23375 -9 4 C-2.25 0 -2.25 0 0 0 Z " fill="#9AE8F6" transform="translate(251,47)"/>
<path d="M0 0 C2.0625 0.4375 2.0625 0.4375 4 1 C4 1.99 4 2.98 4 4 C3.01 4.33 2.02 4.66 1 5 C0.34 3.68 -0.32 2.36 -1 1 C-0.67 0.67 -0.34 0.34 0 0 Z " fill="#2962E6" transform="translate(105,438)"/>
<path d="M0 0 C1.32 0 2.64 0 4 0 C3.67 1.32 3.34 2.64 3 4 C1.35 4.33 -0.3 4.66 -2 5 C-1.34 3.35 -0.68 1.7 0 0 Z " fill="#1752DC" transform="translate(243,374)"/>
<path d="M0 0 C2.31 0 4.62 0 7 0 C4.37801226 2.15377564 2.35595828 3.40072174 -1 4 C-0.67 2.68 -0.34 1.36 0 0 Z " fill="#5D84E5" transform="translate(357,333)"/>
<path d="M0 0 C-0.33 0.99 -0.66 1.98 -1 3 C-3.31 3.33 -5.62 3.66 -8 4 C-5.57415142 1.34311822 -3.76063134 0 0 0 Z " fill="#34C6F7" transform="translate(160,160)"/>
<path d="M0 0 C0.66 0.33 1.32 0.66 2 1 C0.9024777 3.99324263 0.32317108 4.84610901 -2.625 6.25 C-3.40875 6.4975 -4.1925 6.745 -5 7 C-3.70700306 4.11562221 -2.34058637 2.12780579 0 0 Z " fill="#A3ECF7" transform="translate(79,146)"/>
</svg>
